<svg
	xmlns="http://www.w3.org/2000/svg" width="37" height="100" viewBox="0 0 37 100">
	<defs>
		<style>
			.a,.b{fill:none;}.b{stroke:#222222;}.c{fill:#fff;}.d,.e{stroke:none;}.e{fill:#222222;}
			.b1{stroke:#f8e80b;}.e1{fill:#f8e80b;}
			.b2{stroke:#ffffff;}.c2{fill:#EC510C;}.e2{fill:#ffffff;}
		</style>
	</defs>
	<g>
		<g class="a" transform="translate(12 6.818)">
			<path class="d" d="M-12,0H24.527L17.678,19.088H-5.228Z"/>
			<path class="e" d="M -9.168315887451172 1.999996185302734 L -3.815326690673828 17.08837699890137 L 16.27092742919922 17.08837699890137 L 21.68486595153809 1.999996185302734 L -9.168315887451172 1.999996185302734 M -11.99999809265137 -3.814697265625e-06 L 24.52734184265137 -3.814697265625e-06 L 17.67814254760742 19.08837699890137 L -5.227907180786133 19.08837699890137 L -11.99999809265137 -3.814697265625e-06 Z"/>
		</g>
		<line class="b" x2="5" y2="17" transform="translate(9.383 7.5)"/>
		<line class="b" x1="4" y2="17" transform="translate(22.383 7.5)"/>
		<line class="b" y2="16" transform="translate(18.383 8.5)"/>
		<line class="b" x2="28" transform="translate(4.383 14.5)"/>
		<line class="b" x2="25" transform="translate(5.383 19.5)"/>
		<g class="a" transform="translate(5.883 1.307)">
			<path class="d" d="M3,0H22l3,6.693H0Z"/>
			<path class="e" d="M 3.647640228271484 0.9999995231628418 L 1.544052124023438 5.693359851837158 L 23.45594787597656 5.693359851837158 L 21.35235977172852 0.9999995231628418 L 3.647640228271484 0.9999995231628418 M 3 -4.76837158203125e-07 L 22 -4.76837158203125e-07 L 25 6.693359851837158 L 0 6.693359851837158 L 3 -4.76837158203125e-07 Z"/>
		</g>
		<rect class="c" width="9" height="4" rx="2" transform="translate(13.883)"/>
	</g>
	<g transform="translate(0 30)">
		<g class="a" transform="translate(12 6.818)">
			<path class="d" d="M-12,0H24.527L17.678,19.088H-5.228Z"/>
			<path class="e1" d="M -9.168315887451172 1.999996185302734 L -3.815326690673828 17.08837699890137 L 16.27092742919922 17.08837699890137 L 21.68486595153809 1.999996185302734 L -9.168315887451172 1.999996185302734 M -11.99999809265137 -3.814697265625e-06 L 24.52734184265137 -3.814697265625e-06 L 17.67814254760742 19.08837699890137 L -5.227907180786133 19.08837699890137 L -11.99999809265137 -3.814697265625e-06 Z"/>
		</g>
		<line class="b1" x2="5" y2="17" transform="translate(9.383 7.5)"/>
		<line class="b1" x1="4" y2="17" transform="translate(22.383 7.5)"/>
		<line class="b1" y2="16" transform="translate(18.383 8.5)"/>
		<line class="b1" x2="28" transform="translate(4.383 14.5)"/>
		<line class="b1" x2="25" transform="translate(5.383 19.5)"/>
		<g class="a" transform="translate(5.883 1.307)">
			<path class="d" d="M3,0H22l3,6.693H0Z"/>
			<path class="e1" d="M 3.647640228271484 0.9999995231628418 L 1.544052124023438 5.693359851837158 L 23.45594787597656 5.693359851837158 L 21.35235977172852 0.9999995231628418 L 3.647640228271484 0.9999995231628418 M 3 -4.76837158203125e-07 L 22 -4.76837158203125e-07 L 25 6.693359851837158 L 0 6.693359851837158 L 3 -4.76837158203125e-07 Z"/>
		</g>
		<rect class="c" width="9" height="4" rx="2" transform="translate(13.883)"/>
	</g>
	<g transform="translate(0 60)">
		<g class="a" transform="translate(12 6.818)">
			<path class="d" d="M-12,0H24.527L17.678,19.088H-5.228Z"/>
			<path class="e2" d="M -9.168315887451172 1.999996185302734 L -3.815326690673828 17.08837699890137 L 16.27092742919922 17.08837699890137 L 21.68486595153809 1.999996185302734 L -9.168315887451172 1.999996185302734 M -11.99999809265137 -3.814697265625e-06 L 24.52734184265137 -3.814697265625e-06 L 17.67814254760742 19.08837699890137 L -5.227907180786133 19.08837699890137 L -11.99999809265137 -3.814697265625e-06 Z"/>
		</g>
		<line class="b2" x2="5" y2="17" transform="translate(9.383 7.5)"/>
		<line class="b2" x1="4" y2="17" transform="translate(22.383 7.5)"/>
		<line class="b2" y2="16" transform="translate(18.383 8.5)"/>
		<line class="b2" x2="28" transform="translate(4.383 14.5)"/>
		<line class="b2" x2="25" transform="translate(5.383 19.5)"/>
		<g class="a" transform="translate(5.883 1.307)">
			<path class="d" d="M3,0H22l3,6.693H0Z"/>
			<path class="e2" d="M 3.647640228271484 0.9999995231628418 L 1.544052124023438 5.693359851837158 L 23.45594787597656 5.693359851837158 L 21.35235977172852 0.9999995231628418 L 3.647640228271484 0.9999995231628418 M 3 -4.76837158203125e-07 L 22 -4.76837158203125e-07 L 25 6.693359851837158 L 0 6.693359851837158 L 3 -4.76837158203125e-07 Z"/>
		</g>
		<rect class="c2" width="9" height="4" rx="2" transform="translate(13.883)"/>
	</g>		
</svg>