<svg xmlns="http://www.w3.org/2000/svg" width="24.856" height="96" viewBox="0 0 24.856 96">
	<defs><style>.a,.b,.e{fill:none;}.b{stroke:#222;}.c,.d{stroke:none;}.d{fill:#222;}</style></defs>
	<g transform="translate(6.536 0) rotate(30)"><g class="a"><path class="c" d="M3.734,13.071V13.05C1.646,12.795,0,9.976,0,6.537S1.646.278,3.734.022V0L17.01,0a3.584,3.584,0,0,0-2.794,1.972,8.952,8.952,0,0,0-1.152,4.567A8.94,8.94,0,0,0,14.216,11.1a3.567,3.567,0,0,0,2.792,1.965v0Z"/><path class="d" d="M 13.65752983093262 12.07149982452393 C 13.5547924041748 11.92819786071777 13.45572376251221 11.77784538269043 13.36041355133057 11.62037944793701 C 12.52460289001465 10.23715972900391 12.06430339813232 8.43235969543457 12.06430339813232 6.538459300994873 C 12.06429290771484 4.64441967010498 12.52452373504639 2.8390793800354 13.36101341247559 1.453709483146667 C 13.45686435699463 1.295504212379456 13.55653190612793 1.144412994384766 13.65986728668213 1.00045371055603 L 3.964234828948975 1.001768231391907 L 3.855473279953003 1.015069484710693 C 3.161443471908569 1.099959492683411 2.484833240509033 1.657429456710815 1.950273394584656 2.584799528121948 C 1.337483406066895 3.64790940284729 1.000003337860107 5.051369667053223 1.000003337860107 6.536649227142334 C 1.000003337860107 8.021849632263184 1.337473392486572 9.425129890441895 1.950243353843689 10.48799896240234 C 2.484753370285034 11.41511917114258 3.161363363265991 11.97244930267334 3.855433464050293 12.0573091506958 L 3.971489429473877 12.07149982452393 L 13.65752983093262 12.07149982452393 M 17.0080738067627 13.07149982452393 L 3.734073400497437 13.07149982452393 L 3.734073400497437 13.04991912841797 C 1.645723342895508 12.79457950592041 3.357238711032551e-06 9.976469039916992 3.357238711032551e-06 6.536649227142334 C 3.357238711032551e-06 3.096819400787354 1.645713329315186 0.2778894305229187 3.734073400497437 0.02246943488717079 L 3.734073400497437 0.001799435471184552 L 17.00986289978027 -5.645752025884576e-07 C 15.95147323608398 0.04499943554401398 14.96058368682861 0.7433894276618958 14.21628379821777 1.97188937664032 C 13.47289371490479 3.203079462051392 13.06429290771484 4.823959350585938 13.06430339813232 6.538449287414551 C 13.06430339813232 8.253839492797852 13.47289371490479 9.872919082641602 14.21629333496094 11.10320949554443 C 14.95878314971924 12.329909324646 15.95147323608398 13.02649974822998 17.0080738067627 13.06789970397949 L 17.0080738067627 13.07149982452393 Z"/></g><g class="a" transform="translate(21.154 13.069) rotate(180)"><path class="c" d="M4.044,0C6.278,0,8.088,2.925,8.088,6.533s-1.811,6.533-4.044,6.533S0,10.141,0,6.533,1.811,0,4.044,0Z"/><path class="d" d="M 4.044115543365479 1.000003814697266 C 3.071295738220215 1.000003814697266 2.367625713348389 1.902063369750977 2.034755706787109 2.439773559570312 C 1.377155780792236 3.502053260803223 0.9999957084655762 4.993903160095215 0.9999957084655762 6.532803535461426 C 0.9999957084655762 8.07170295715332 1.377155780792236 9.563553810119629 2.034755706787109 10.62583351135254 C 2.367625713348389 11.16354370117188 3.071295738220215 12.06560325622559 4.044115543365479 12.06560325622559 C 5.016935348510742 12.06560325622559 5.720605850219727 11.16354370117188 6.053475379943848 10.62583351135254 C 6.711075782775879 9.563553810119629 7.088225364685059 8.07170295715332 7.088225364685059 6.532803535461426 C 7.088225364685059 4.993903160095215 6.711075782775879 3.502053260803223 6.053465843200684 2.439773559570312 C 5.720605850219727 1.902063369750977 5.016925811767578 1.000003814697266 4.044115543365479 1.000003814697266 M 4.044115543365479 3.814697265625e-06 C 6.277615547180176 3.814697265625e-06 8.088225364685059 2.924833297729492 8.088225364685059 6.532803535461426 C 8.088235855102539 10.14077377319336 6.277615547180176 13.06560325622559 4.044115543365479 13.06560325622559 C 1.810615539550781 13.06560325622559 -4.76837158203125e-06 10.14077377319336 -4.76837158203125e-06 6.532803535461426 C -4.76837158203125e-06 2.924833297729492 1.810615539550781 3.814697265625e-06 4.044115543365479 3.814697265625e-06 Z"/></g><g class="b" transform="translate(18.043 9.958) rotate(180)"><ellipse class="c" cx="1.867" cy="3.422" rx="1.867" ry="3.422"/><ellipse class="e" cx="1.867" cy="3.422" rx="1.367" ry="2.922"/></g></g>
	
	<defs><style>.aHover,.bHover,.eHover{fill:#F8E80B;}.b{stroke:#222;}.c,.d{stroke:none;}.d{fill:#222;}</style></defs>
	<g transform="translate(6.536 32) rotate(30)"><g class="aHover"><path class="c" d="M3.734,13.071V13.05C1.646,12.795,0,9.976,0,6.537S1.646.278,3.734.022V0L17.01,0a3.584,3.584,0,0,0-2.794,1.972,8.952,8.952,0,0,0-1.152,4.567A8.94,8.94,0,0,0,14.216,11.1a3.567,3.567,0,0,0,2.792,1.965v0Z"/><path class="d" d="M 13.65752983093262 12.07149982452393 C 13.5547924041748 11.92819786071777 13.45572376251221 11.77784538269043 13.36041355133057 11.62037944793701 C 12.52460289001465 10.23715972900391 12.06430339813232 8.43235969543457 12.06430339813232 6.538459300994873 C 12.06429290771484 4.64441967010498 12.52452373504639 2.8390793800354 13.36101341247559 1.453709483146667 C 13.45686435699463 1.295504212379456 13.55653190612793 1.144412994384766 13.65986728668213 1.00045371055603 L 3.964234828948975 1.001768231391907 L 3.855473279953003 1.015069484710693 C 3.161443471908569 1.099959492683411 2.484833240509033 1.657429456710815 1.950273394584656 2.584799528121948 C 1.337483406066895 3.64790940284729 1.000003337860107 5.051369667053223 1.000003337860107 6.536649227142334 C 1.000003337860107 8.021849632263184 1.337473392486572 9.425129890441895 1.950243353843689 10.48799896240234 C 2.484753370285034 11.41511917114258 3.161363363265991 11.97244930267334 3.855433464050293 12.0573091506958 L 3.971489429473877 12.07149982452393 L 13.65752983093262 12.07149982452393 M 17.0080738067627 13.07149982452393 L 3.734073400497437 13.07149982452393 L 3.734073400497437 13.04991912841797 C 1.645723342895508 12.79457950592041 3.357238711032551e-06 9.976469039916992 3.357238711032551e-06 6.536649227142334 C 3.357238711032551e-06 3.096819400787354 1.645713329315186 0.2778894305229187 3.734073400497437 0.02246943488717079 L 3.734073400497437 0.001799435471184552 L 17.00986289978027 -5.645752025884576e-07 C 15.95147323608398 0.04499943554401398 14.96058368682861 0.7433894276618958 14.21628379821777 1.97188937664032 C 13.47289371490479 3.203079462051392 13.06429290771484 4.823959350585938 13.06430339813232 6.538449287414551 C 13.06430339813232 8.253839492797852 13.47289371490479 9.872919082641602 14.21629333496094 11.10320949554443 C 14.95878314971924 12.329909324646 15.95147323608398 13.02649974822998 17.0080738067627 13.06789970397949 L 17.0080738067627 13.07149982452393 Z"/></g><g class="aHover" transform="translate(21.154 13.069) rotate(180)"><path class="c" d="M4.044,0C6.278,0,8.088,2.925,8.088,6.533s-1.811,6.533-4.044,6.533S0,10.141,0,6.533,1.811,0,4.044,0Z"/><path class="d" d="M 4.044115543365479 1.000003814697266 C 3.071295738220215 1.000003814697266 2.367625713348389 1.902063369750977 2.034755706787109 2.439773559570312 C 1.377155780792236 3.502053260803223 0.9999957084655762 4.993903160095215 0.9999957084655762 6.532803535461426 C 0.9999957084655762 8.07170295715332 1.377155780792236 9.563553810119629 2.034755706787109 10.62583351135254 C 2.367625713348389 11.16354370117188 3.071295738220215 12.06560325622559 4.044115543365479 12.06560325622559 C 5.016935348510742 12.06560325622559 5.720605850219727 11.16354370117188 6.053475379943848 10.62583351135254 C 6.711075782775879 9.563553810119629 7.088225364685059 8.07170295715332 7.088225364685059 6.532803535461426 C 7.088225364685059 4.993903160095215 6.711075782775879 3.502053260803223 6.053465843200684 2.439773559570312 C 5.720605850219727 1.902063369750977 5.016925811767578 1.000003814697266 4.044115543365479 1.000003814697266 M 4.044115543365479 3.814697265625e-06 C 6.277615547180176 3.814697265625e-06 8.088225364685059 2.924833297729492 8.088225364685059 6.532803535461426 C 8.088235855102539 10.14077377319336 6.277615547180176 13.06560325622559 4.044115543365479 13.06560325622559 C 1.810615539550781 13.06560325622559 -4.76837158203125e-06 10.14077377319336 -4.76837158203125e-06 6.532803535461426 C -4.76837158203125e-06 2.924833297729492 1.810615539550781 3.814697265625e-06 4.044115543365479 3.814697265625e-06 Z"/></g><g class="b" transform="translate(18.043 9.958) rotate(180)"><ellipse class="c" cx="1.867" cy="3.422" rx="1.867" ry="3.422"/><ellipse class="eHover" cx="1.867" cy="3.422" rx="1.367" ry="2.922"/></g></g>

	<defs>
		<style>.aSel{fill:url(#aSel);}.bSel{fill:url(#bSel);}.cSel{fill:#fff;stroke:#222;}.dSel,.eSel{stroke:none;}.eSel{fill:#222;}.fSel{fill:none;}</style>
		<linearGradient id="aSel" x1="0.5" x2="0.5" y2="1" gradientUnits="objectBoundingBox">
			<stop offset="0" stop-color="#222"/>
			<stop offset="1" stop-color="gray"/>
		</linearGradient>
		<linearGradient id="bSel" x1="0.919" y1="0.456" x2="-0.061" y2="0.5" gradientUnits="objectBoundingBox">
			<stop offset="0" stop-color="#222"/>
			<stop offset="1" stop-color="#f9f4f4"/>
		</linearGradient>
	</defs>
	<g transform="translate(6.536 64) rotate(30)">
		<g>
			<g class="aSel">

				<path class="dSel" d="M3.734,13.071V13.05C1.646,12.795,0,9.976,0,6.537S1.646.278,3.734.022V0L17.01,0a3.584,3.584,0,0,0-2.794,1.972,8.952,8.952,0,0,0-1.152,4.567A8.94,8.94,0,0,0,14.216,11.1a3.567,3.567,0,0,0,2.792,1.965v0Z"/>
				<path class="eSel" d="M 13.65752983093262 12.07149982452393 C 13.5547924041748 11.92819786071777 13.45572376251221 11.77784538269043 13.36041355133057 11.62037944793701 C 12.52460289001465 10.23715972900391 12.06430339813232 8.43235969543457 12.06430339813232 6.538459300994873 C 12.06429290771484 4.64441967010498 12.52452373504639 2.8390793800354 13.36101341247559 1.453709483146667 C 13.45686435699463 1.295504212379456 13.55653190612793 1.144412994384766 13.65986728668213 1.00045371055603 L 3.964234828948975 1.001768231391907 L 3.855473279953003 1.015069484710693 C 3.161443471908569 1.099959492683411 2.484833240509033 1.657429456710815 1.950273394584656 2.584799528121948 C 1.337483406066895 3.64790940284729 1.000003337860107 5.051369667053223 1.000003337860107 6.536649227142334 C 1.000003337860107 8.021849632263184 1.337473392486572 9.425129890441895 1.950243353843689 10.48799896240234 C 2.484753370285034 11.41511917114258 3.161363363265991 11.97244930267334 3.855433464050293 12.0573091506958 L 3.971489429473877 12.07149982452393 L 13.65752983093262 12.07149982452393 M 17.0080738067627 13.07149982452393 L 3.734073400497437 13.07149982452393 L 3.734073400497437 13.04991912841797 C 1.645723342895508 12.79457950592041 3.357238711032551e-06 9.976469039916992 3.357238711032551e-06 6.536649227142334 C 3.357238711032551e-06 3.096819400787354 1.645713329315186 0.2778894305229187 3.734073400497437 0.02246943488717079 L 3.734073400497437 0.001799435471184552 L 17.00986289978027 -5.645752025884576e-07 C 15.95147323608398 0.04499943554401398 14.96058368682861 0.7433894276618958 14.21628379821777 1.97188937664032 C 13.47289371490479 3.203079462051392 13.06429290771484 4.823959350585938 13.06430339813232 6.538449287414551 C 13.06430339813232 8.253839492797852 13.47289371490479 9.872919082641602 14.21629333496094 11.10320949554443 C 14.95878314971924 12.329909324646 15.95147323608398 13.02649974822998 17.0080738067627 13.06789970397949 L 17.0080738067627 13.07149982452393 Z"/>
			</g>
			<g class="bSel" transform="translate(21.154 13.069) rotate(180)">
				<path class="dSel" d="M4.044,0C6.278,0,8.088,2.925,8.088,6.533s-1.811,6.533-4.044,6.533S0,10.141,0,6.533,1.811,0,4.044,0Z"/>
				<path class="eSel" d="M 4.044115543365479 1.000003814697266 C 3.071295738220215 1.000003814697266 2.367625713348389 1.902063369750977 2.034755706787109 2.439773559570312 C 1.377155780792236 3.502053260803223 0.9999957084655762 4.993903160095215 0.9999957084655762 6.532803535461426 C 0.9999957084655762 8.07170295715332 1.377155780792236 9.563553810119629 2.034755706787109 10.62583351135254 C 2.367625713348389 11.16354370117188 3.071295738220215 12.06560325622559 4.044115543365479 12.06560325622559 C 5.016935348510742 12.06560325622559 5.720605850219727 11.16354370117188 6.053475379943848 10.62583351135254 C 6.711075782775879 9.563553810119629 7.088225364685059 8.07170295715332 7.088225364685059 6.532803535461426 C 7.088225364685059 4.993903160095215 6.711075782775879 3.502053260803223 6.053465843200684 2.439773559570312 C 5.720605850219727 1.902063369750977 5.016925811767578 1.000003814697266 4.044115543365479 1.000003814697266 M 4.044115543365479 3.814697265625e-06 C 6.277615547180176 3.814697265625e-06 8.088225364685059 2.924833297729492 8.088225364685059 6.532803535461426 C 8.088235855102539 10.14077377319336 6.277615547180176 13.06560325622559 4.044115543365479 13.06560325622559 C 1.810615539550781 13.06560325622559 -4.76837158203125e-06 10.14077377319336 -4.76837158203125e-06 6.532803535461426 C -4.76837158203125e-06 2.924833297729492 1.810615539550781 3.814697265625e-06 4.044115543365479 3.814697265625e-06 Z"/>
			</g>
			<g class="cSel" transform="translate(18.043 9.958) rotate(180)">
				<ellipse class="dSel" cx="1.867" cy="3.422" rx="1.867" ry="3.422"/>
				<ellipse class="fSel" cx="1.867" cy="3.422" rx="1.367" ry="2.922"/>
			</g>
		</g>
	</g>
	
</svg>