<svg
	xmlns="http://www.w3.org/2000/svg"
	xmlns:xlink="http://www.w3.org/1999/xlink" width="27" height="74" viewBox="0 0 27 74">
	<defs>
		<style>.c{filter:url(#c);}</style>

		<filter id="c">
			<feOffset dx="2" dy="2" input="SourceAlpha"/>
			<feGaussianBlur stdDeviation="1" result="d"/>
			<feFlood flood-opacity="0.161" result="e"/>
			<feComposite operator="out" in="SourceGraphic" in2="d"/>
			<feComposite operator="in" in="e"/>
			<feComposite operator="in" in2="SourceGraphic"/>
		</filter>
	</defs>
		<g transform="translate(-129 -59)">
			<g data-type="innerShadowGroup">
				<path fill="#06c" d="M24800,17679h0a73.7,73.7,0,0,1-6.5-6.332,39.426,39.426,0,0,1-4.469-5.865,11.888,11.888,0,0,1-2.031-5.838,13,13,0,0,1,26,0,11.894,11.894,0,0,1-2.031,5.838,39.6,39.6,0,0,1-4.469,5.865,73.389,73.389,0,0,1-6.5,6.332Zm0-25.363a6.764,6.764,0,1,0,6.785,6.762A6.778,6.778,0,0,0,24800,17653.637Z" transform="translate(-24657 -17588)"/>
				<g class="c" transform="matrix(1, 0, 0, 1, 95, 27)">
					<path d="M24800,17679h0a73.7,73.7,0,0,1-6.5-6.332,39.426,39.426,0,0,1-4.469-5.865,11.888,11.888,0,0,1-2.031-5.838,13,13,0,0,1,26,0,11.894,11.894,0,0,1-2.031,5.838,39.6,39.6,0,0,1-4.469,5.865,73.389,73.389,0,0,1-6.5,6.332Zm0-25.363a6.764,6.764,0,1,0,6.785,6.762A6.778,6.778,0,0,0,24800,17653.637Z" transform="translate(-24752 -17615)"/>
				</g>
			</g>
		</g>
		<g transform="translate(-129 -17)">
			<g data-type="innerShadowGroup">
				<path fill="#91BEEB" d="M24800,17679h0a73.7,73.7,0,0,1-6.5-6.332,39.426,39.426,0,0,1-4.469-5.865,11.888,11.888,0,0,1-2.031-5.838,13,13,0,0,1,26,0,11.894,11.894,0,0,1-2.031,5.838,39.6,39.6,0,0,1-4.469,5.865,73.389,73.389,0,0,1-6.5,6.332Zm0-25.363a6.764,6.764,0,1,0,6.785,6.762A6.778,6.778,0,0,0,24800,17653.637Z" transform="translate(-24657 -17588)"/>
				<g class="c" transform="matrix(1, 0, 0, 1, 95, 27)">
					<path d="M24800,17679h0a73.7,73.7,0,0,1-6.5-6.332,39.426,39.426,0,0,1-4.469-5.865,11.888,11.888,0,0,1-2.031-5.838,13,13,0,0,1,26,0,11.894,11.894,0,0,1-2.031,5.838,39.6,39.6,0,0,1-4.469,5.865,73.389,73.389,0,0,1-6.5,6.332Zm0-25.363a6.764,6.764,0,1,0,6.785,6.762A6.778,6.778,0,0,0,24800,17653.637Z" transform="translate(-24752 -17615)"/>
				</g>
			</g>
		</g>		
</svg>