<svg
	xmlns="http://www.w3.org/2000/svg"
	xmlns:xlink="http://www.w3.org/1999/xlink" width="520" height="2400" viewBox="0 0 520 2400">
	<defs>
		<style>
		.normal, .hover{fill:#06c;} .a1{fill:#fff;} .a2{filter:url(#normal); } 
		.hover, .selected{stroke:#000; stroke-width: 2;}
		.selected{fill:#06c;} .b1{filter:url(#selected);}
		.yellow .normal, .yellow .hover, .yellow .selected{fill:#F8E80B;}
		.curve{fill:rgba(34,34,34,0.5);}
		.visited {fill: #004488}
		.yellow .visited{fill:#FBB906;}
		</style>
		<filter id="normal" x="0" y="0" filterUnits="userSpaceOnUse">
			<feOffset dy="3" input="SourceAlpha"/>
			<feGaussianBlur stdDeviation="3" result="a2"/>
			<feFlood flood-opacity="0.259" result="a1"/>
			<feComposite operator="out" in="SourceGraphic" in2="a2"/>
			<feComposite operator="in" in="a1"/>
			<feComposite operator="in" in2="SourceGraphic"/>
		</filter>
		<filter id="selected" x="-1" y="-1" filterUnits="userSpaceOnUse">
			<feOffset dx="6" dy="6" input="SourceAlpha"/>
			<feGaussianBlur stdDeviation="3" result="b1"/>
			<feFlood flood-color="#222" flood-opacity="0.502"/>
			<feComposite operator="in" in2="b1"/>
			<feComposite in="SourceGraphic"/>
		</filter>	
	</defs>
	<g transform="translate(2 0)">
		<g transform="translate(0 0)">
			<path class="normal" d="M0,0H191l30,28.68L191,60H0Z"/>
			<path class="a2" d="M0,0H191l30,28.68L191,60H0Z"/>
		</g>
		<g transform="translate(0 81)">
			<path class="visited" d="M0,0H191l30,28.68L191,60H0Z"/>
		</g>	
		<g transform="translate(270 81)">
			<path class="visited hover" d="M0,0H191l30,28.68L191,60H0Z"/>
		</g>	
		<g transform="translate(0 160)" class="b1">
			<path class="selected" d="M0,0H191l30,28.68L191,60H0Z"/>
		</g>
	</g>
	<g transform="translate(225 240) scale(-1 1)">
		<g transform="translate(0 0)">
			<path class="normal" d="M0,0H191l30,28.68L191,60H0Z"/>
			<path class="a2" d="M0,0H191l30,28.68L191,60H0Z"/>
		</g>
		<g transform="translate(0 81)">
			<path class="visited" d="M0,0H191l30,28.68L191,60H0Z"/>
		</g>	
		<g transform="translate(-270 81)">
			<path class="visited hover" d="M0,0H191l30,28.68L191,60H0Z"/>
		</g>	
		<g transform="translate(0 160)" class="b1">
			<path class="selected" d="M0,0H191l30,28.68L191,60H0Z"/>
		</g>	
	</g>
	<g transform="translate(2 480)">
		<g transform="translate(0 0)">
			<path class="normal" d="M0,0H191l30,27.554L191,60H0L30,28.573Z"/>
			<path class="a2" d="M0,0H191l30,27.554L191,60H0L30,28.573Z"/>
		</g>
		<g transform="translate(0 81)">
			<path class="visited" d="M0,0H191l30,27.554L191,60H0L30,28.573Z"/>
		</g>	
		<g transform="translate(270 81)">
			<path class="visited hover" d="M0,0H191l30,27.554L191,60H0L30,28.573Z"/>
		</g>	
		<g transform="translate(0 160)" class="b1">
			<path class="selected" d="M0,0H191l30,27.554L191,60H0L30,28.573Z"/>
		</g>	
	</g>
	<g transform="translate(225 720) scale(-1 1)">
		<g transform="translate(0 0)">
			<path class="normal" d="M0,0H191l30,27.554L191,60H0L30,28.573Z"/>
			<path class="a2" d="M0,0H191l30,27.554L191,60H0L30,28.573Z"/>
		</g>
		<g transform="translate(0 81)">
			<path class="visited" d="M0,0H191l30,27.554L191,60H0L30,28.573Z"/>
		</g>	
		<g transform="translate(-270 81)">
			<path class="visited hover" d="M0,0H191l30,27.554L191,60H0L30,28.573Z"/>
		</g>	
		<g transform="translate(0 160)" class="b1">
			<path class="selected" d="M0,0H191l30,27.554L191,60H0L30,28.573Z"/>
		</g>	
	</g>
	<g transform="translate(2 960)" class="yellow">
		<g transform="translate(0 0)">
			<path class="normal" d="M0,0H191l30,27.554L191,60H0L30,28.573Z"/>
			<path class="a2" d="M0,0H191l30,27.554L191,60H0L30,28.573Z"/>
		</g>
		<g transform="translate(0 81)">
			<path class="visited" d="M0,0H191l30,27.554L191,60H0L30,28.573Z"/>
		</g>	
		<g transform="translate(270 81)">
			<path class="visited hover" d="M0,0H191l30,27.554L191,60H0L30,28.573Z"/>
		</g>	
		<g transform="translate(0 160)" class="b1">
			<path class="selected" d="M0,0H191l30,27.554L191,60H0L30,28.573Z"/>
		</g>	
	</g>
	<g transform="translate(225 1200) scale(-1 1)"  class="yellow">
		<g transform="translate(0 0)">
			<path class="normal" d="M0,0H191l30,27.554L191,60H0L30,28.573Z"/>
			<path class="a2" d="M0,0H191l30,27.554L191,60H0L30,28.573Z"/>
		</g>
		<g transform="translate(0 81)">
			<path class="visited" d="M0,0H191l30,27.554L191,60H0L30,28.573Z"/>
		</g>	
		<g transform="translate(-270 81)">
			<path class="visited hover" d="M0,0H191l30,27.554L191,60H0L30,28.573Z"/>
		</g>	
		<g transform="translate(0 160)" class="b1">
			<path class="selected" d="M0,0H191l30,27.554L191,60H0L30,28.573Z"/>
		</g>	
	</g>
	<g transform="translate(2 1440)">
		<g transform="translate(0 0)">
			<path class="normal" d="M0,0H221l-30,28.68L221,60H0Z"/>
			<path class="a2" d="M0,0H221l-30,28.68L221,60H0Z"/>
		</g>
		<g transform="translate(0 81)">
			<path class="visited" d="M0,0H221l-30,28.68L221,60H0Z"/>
		</g>	
		<g transform="translate(270 81)">
			<path class="visited hover" d="M0,0H221l-30,28.68L221,60H0Z"/>
		</g>	
		<g transform="translate(0 160)" class="b1">
			<path class="selected" d="M0,0H221l-30,28.68L221,60H0Z" />
		</g>
	</g>
	<g transform="translate(225 1680) scale(-1 1)">	
		<g transform="translate(0 0)">
			<path class="normal" d="M0,0H221l-30,28.68L221,60H0Z"/>
			<path class="a2" d="M0,0H221l-30,28.68L221,60H0Z"/>
		</g>
		<g transform="translate(0 81)">
			<path class="visited" d="M0,0H221l-30,28.68L221,60H0Z"/>
		</g>	
		<g transform="translate(-270 81)">
			<path class="visited hover" d="M0,0H221l-30,28.68L221,60H0Z"/>
		</g>	
		<g transform="translate(0 160)" class="b1">
			<path class="selected" d="M0,0H221l-30,28.68L221,60H0Z"/>
		</g>		
	</g>
	<g transform="translate(2 1920) rotate(180 70 67)">
		<path class="curve" d="M131.823,134a133.243,133.243,0,0,1-26.567-2.668,131.626,131.626,0,0,1-24.745-7.655,131.937,131.937,0,0,1-22.393-12.111,132.882,132.882,0,0,1-19.51-16.04,132.507,132.507,0,0,1-16.1-19.443A131.452,131.452,0,0,1,10.357,53.769,130.677,130.677,0,0,1,2.677,29.11,131.861,131.861,0,0,1,0,2.634C0,1.725.009.839.027,0h60.44c-.023.759-.035,1.518-.035,2.256a72.481,72.481,0,0,0,72.525,72.271c2.013,0,4.046-.083,6.042-.249v59.529C136.613,133.936,134.2,134,131.823,134Z"/>
		<path class="a2" d="M131.823,134a133.243,133.243,0,0,1-26.567-2.668,131.626,131.626,0,0,1-24.745-7.655,131.937,131.937,0,0,1-22.393-12.111,132.882,132.882,0,0,1-19.51-16.04,132.507,132.507,0,0,1-16.1-19.443A131.452,131.452,0,0,1,10.357,53.769,130.677,130.677,0,0,1,2.677,29.11,131.861,131.861,0,0,1,0,2.634C0,1.725.009.839.027,0h60.44c-.023.759-.035,1.518-.035,2.256a72.481,72.481,0,0,0,72.525,72.271c2.013,0,4.046-.083,6.042-.249v59.529C136.613,133.936,134.2,134,131.823,134Z"/>
	</g>
	<g transform="translate(2 2120)">
		<path class="curve" d="M131.823,134a133.243,133.243,0,0,1-26.567-2.668,131.626,131.626,0,0,1-24.745-7.655,131.937,131.937,0,0,1-22.393-12.111,132.882,132.882,0,0,1-19.51-16.04,132.507,132.507,0,0,1-16.1-19.443A131.452,131.452,0,0,1,10.357,53.769,130.677,130.677,0,0,1,2.677,29.11,131.861,131.861,0,0,1,0,2.634C0,1.725.009.839.027,0h60.44c-.023.759-.035,1.518-.035,2.256a72.481,72.481,0,0,0,72.525,72.271c2.013,0,4.046-.083,6.042-.249v59.529C136.613,133.936,134.2,134,131.823,134Z"/>
		<path class="a2" d="M131.823,134a133.243,133.243,0,0,1-26.567-2.668,131.626,131.626,0,0,1-24.745-7.655,131.937,131.937,0,0,1-22.393-12.111,132.882,132.882,0,0,1-19.51-16.04,132.507,132.507,0,0,1-16.1-19.443A131.452,131.452,0,0,1,10.357,53.769,130.677,130.677,0,0,1,2.677,29.11,131.861,131.861,0,0,1,0,2.634C0,1.725.009.839.027,0h60.44c-.023.759-.035,1.518-.035,2.256a72.481,72.481,0,0,0,72.525,72.271c2.013,0,4.046-.083,6.042-.249v59.529C136.613,133.936,134.2,134,131.823,134Z"/>
	</g>		
</svg>